<mxfile host="app.diagrams.net" agent="Mozilla/5.0 (X11; Linux x86_64) AppleWebKit/537.36 (KHTML, like Gecko) Chrome/128.0.0.0 Safari/537.36" version="24.7.17">
  <diagram name="Page-1" id="SS7GhmCGy97nS8xLdGVg">
    <mxGraphModel dx="828" dy="1230" grid="1" gridSize="10" guides="1" tooltips="1" connect="1" arrows="1" fold="1" page="1" pageScale="1" pageWidth="850" pageHeight="1100" math="0" shadow="0">
      <root>
        <mxCell id="0" />
        <mxCell id="1" parent="0" />
        <mxCell id="7N61FaL-gufpBRgv7t73-6" style="edgeStyle=orthogonalEdgeStyle;rounded=0;orthogonalLoop=1;jettySize=auto;html=1;entryX=0.5;entryY=0;entryDx=0;entryDy=0;curved=1;fontSize=15;" edge="1" parent="1" source="7N61FaL-gufpBRgv7t73-1" target="7N61FaL-gufpBRgv7t73-2">
          <mxGeometry relative="1" as="geometry" />
        </mxCell>
        <mxCell id="7N61FaL-gufpBRgv7t73-1" value="Outlaw&amp;nbsp;&lt;div&gt;it&lt;/div&gt;" style="rounded=1;whiteSpace=wrap;html=1;fontSize=15;" vertex="1" parent="1">
          <mxGeometry x="350" y="230" width="120" height="60" as="geometry" />
        </mxCell>
        <mxCell id="7N61FaL-gufpBRgv7t73-7" style="edgeStyle=orthogonalEdgeStyle;rounded=0;orthogonalLoop=1;jettySize=auto;html=1;entryX=0.5;entryY=0;entryDx=0;entryDy=0;curved=1;fontSize=15;" edge="1" parent="1" source="7N61FaL-gufpBRgv7t73-2" target="7N61FaL-gufpBRgv7t73-9">
          <mxGeometry relative="1" as="geometry">
            <mxPoint x="410" y="520" as="targetPoint" />
          </mxGeometry>
        </mxCell>
        <mxCell id="7N61FaL-gufpBRgv7t73-2" value="Arrest&amp;nbsp;&lt;div&gt;Them&lt;/div&gt;" style="rounded=1;whiteSpace=wrap;html=1;fontSize=15;" vertex="1" parent="1">
          <mxGeometry x="350" y="320" width="120" height="60" as="geometry" />
        </mxCell>
        <mxCell id="7N61FaL-gufpBRgv7t73-9" value="&lt;div style=&quot;font-size: 15px;&quot;&gt;&lt;br&gt;&lt;/div&gt;" style="rounded=1;whiteSpace=wrap;html=1;fontSize=15;" vertex="1" parent="1">
          <mxGeometry x="290" y="410" width="240" height="250" as="geometry" />
        </mxCell>
        <mxCell id="7N61FaL-gufpBRgv7t73-11" value="No" style="edgeStyle=orthogonalEdgeStyle;rounded=0;orthogonalLoop=1;jettySize=auto;html=1;entryX=0;entryY=0.5;entryDx=0;entryDy=0;curved=1;fontSize=15;exitX=0;exitY=0.5;exitDx=0;exitDy=0;" edge="1" parent="1" source="7N61FaL-gufpBRgv7t73-10" target="7N61FaL-gufpBRgv7t73-2">
          <mxGeometry relative="1" as="geometry">
            <Array as="points">
              <mxPoint x="250" y="735" />
              <mxPoint x="250" y="350" />
            </Array>
          </mxGeometry>
        </mxCell>
        <mxCell id="7N61FaL-gufpBRgv7t73-13" value="Yes" style="edgeStyle=orthogonalEdgeStyle;rounded=0;orthogonalLoop=1;jettySize=auto;html=1;fontSize=15;entryX=0.5;entryY=0;entryDx=0;entryDy=0;entryPerimeter=0;" edge="1" parent="1" source="7N61FaL-gufpBRgv7t73-10" target="7N61FaL-gufpBRgv7t73-18">
          <mxGeometry relative="1" as="geometry">
            <mxPoint x="540" y="940" as="targetPoint" />
          </mxGeometry>
        </mxCell>
        <mxCell id="7N61FaL-gufpBRgv7t73-10" value="Fixed?" style="rhombus;whiteSpace=wrap;html=1;fontSize=15;" vertex="1" parent="1">
          <mxGeometry x="357.5" y="680" width="105" height="110" as="geometry" />
        </mxCell>
        <mxCell id="7N61FaL-gufpBRgv7t73-12" style="edgeStyle=orthogonalEdgeStyle;rounded=0;orthogonalLoop=1;jettySize=auto;html=1;entryX=0.5;entryY=0;entryDx=0;entryDy=0;entryPerimeter=0;curved=1;fontSize=15;" edge="1" parent="1" source="7N61FaL-gufpBRgv7t73-9" target="7N61FaL-gufpBRgv7t73-10">
          <mxGeometry relative="1" as="geometry" />
        </mxCell>
        <mxCell id="7N61FaL-gufpBRgv7t73-14" value="&lt;font style=&quot;font-size: 21px;&quot;&gt;How to solve&lt;/font&gt;&lt;div&gt;&lt;font style=&quot;font-size: 21px;&quot;&gt;&amp;nbsp;Anything&lt;/font&gt;&lt;/div&gt;&lt;div&gt;&lt;font style=&quot;font-size: 21px;&quot;&gt;In&lt;/font&gt;&lt;/div&gt;&lt;div&gt;&lt;font style=&quot;font-size: 21px;&quot;&gt;&amp;nbsp;Singapore&lt;/font&gt;&lt;/div&gt;" style="text;html=1;align=center;verticalAlign=middle;whiteSpace=wrap;rounded=0;" vertex="1" parent="1">
          <mxGeometry x="200" y="20" width="420" height="140" as="geometry" />
        </mxCell>
        <mxCell id="7N61FaL-gufpBRgv7t73-16" style="edgeStyle=orthogonalEdgeStyle;rounded=0;orthogonalLoop=1;jettySize=auto;html=1;" edge="1" parent="1" source="7N61FaL-gufpBRgv7t73-15" target="7N61FaL-gufpBRgv7t73-1">
          <mxGeometry relative="1" as="geometry" />
        </mxCell>
        <mxCell id="7N61FaL-gufpBRgv7t73-15" value="&lt;b&gt;&lt;font color=&quot;#006600&quot; style=&quot;font-size: 17px;&quot;&gt;START&lt;/font&gt;&lt;/b&gt;" style="text;html=1;align=center;verticalAlign=middle;resizable=0;points=[];autosize=1;strokeColor=none;fillColor=none;" vertex="1" parent="1">
          <mxGeometry x="370" y="180" width="80" height="30" as="geometry" />
        </mxCell>
        <mxCell id="7N61FaL-gufpBRgv7t73-18" value="&lt;font style=&quot;font-size: 15px;&quot;&gt;&lt;b&gt;We did it!&lt;/b&gt;&lt;/font&gt;" style="whiteSpace=wrap;html=1;shape=mxgraph.basic.octagon2;align=center;verticalAlign=middle;dx=15;fillColor=#a20025;strokeColor=#6F0000;fontColor=#ffffff;" vertex="1" parent="1">
          <mxGeometry x="355" y="850" width="110" height="100" as="geometry" />
        </mxCell>
        <mxCell id="7N61FaL-gufpBRgv7t73-19" value="" style="shape=image;verticalLabelPosition=bottom;labelBackgroundColor=default;verticalAlign=top;aspect=fixed;imageAspect=0;image=https://deathpenaltyproject.org/wp-content/uploads/2020/09/Cane-e1598621447561-300x172.png;" vertex="1" parent="1">
          <mxGeometry x="270" y="449" width="300" height="172" as="geometry" />
        </mxCell>
      </root>
    </mxGraphModel>
  </diagram>
</mxfile>
